<svg width="1280" height="780" viewBox="0 0 1280 780" fill="none" xmlns="http://www.w3.org/2000/svg" role="img" aria-labelledby="title desc">
  <title id="title">Codex+ architecture</title>
  <desc id="desc">Codex CLI runs locally under the desktop app. The desktop app connects to the cloud Relay server. Mobile clients connect to the Relay to control desktop Codex sessions.</desc>
  <defs>
    <filter id="cardShadow" x="-12%" y="-18%" width="124%" height="140%" color-interpolation-filters="sRGB">
      <feDropShadow dx="0" dy="18" stdDeviation="22" flood-color="#0f172a" flood-opacity="0.12"/>
    </filter>
    <marker id="arrowDark" markerWidth="12" markerHeight="12" refX="10" refY="6" orient="auto" markerUnits="strokeWidth">
      <path d="M2 2L10 6L2 10" stroke="#111827" stroke-width="2" stroke-linecap="round" stroke-linejoin="round"/>
    </marker>
    <marker id="arrowBlue" markerWidth="12" markerHeight="12" refX="10" refY="6" orient="auto" markerUnits="strokeWidth">
      <path d="M2 2L10 6L2 10" stroke="#2563eb" stroke-width="2" stroke-linecap="round" stroke-linejoin="round"/>
    </marker>
    <marker id="arrowGreen" markerWidth="12" markerHeight="12" refX="10" refY="6" orient="auto" markerUnits="strokeWidth">
      <path d="M2 2L10 6L2 10" stroke="#16a34a" stroke-width="2" stroke-linecap="round" stroke-linejoin="round"/>
    </marker>
  </defs>

  <rect width="1280" height="780" rx="28" fill="#f8fafc"/>
  <rect x="42" y="42" width="1196" height="696" rx="26" fill="#ffffff" stroke="#e5e7eb"/>

  <text x="84" y="104" fill="#111827" font-family="Inter, ui-sans-serif, system-ui, -apple-system, BlinkMacSystemFont, Segoe UI, sans-serif" font-size="34" font-weight="760">Codex+ Architecture</text>
  <text x="84" y="136" fill="#6b7280" font-family="Inter, ui-sans-serif, system-ui, -apple-system, BlinkMacSystemFont, Segoe UI, sans-serif" font-size="16">Codex stays on the workstation. Desktop owns execution. Mobile controls sessions through Relay.</text>

  <rect x="82" y="188" width="612" height="454" rx="24" fill="#f9fafb" stroke="#d1d5db" stroke-width="1.5"/>
  <text x="118" y="234" fill="#374151" font-family="Inter, ui-sans-serif, system-ui, -apple-system, BlinkMacSystemFont, Segoe UI, sans-serif" font-size="17" font-weight="760">Local workstation</text>
  <text x="118" y="260" fill="#6b7280" font-family="Inter, ui-sans-serif, system-ui, -apple-system, BlinkMacSystemFont, Segoe UI, sans-serif" font-size="14">Repository files, workspaces, sessions, local Codex runtime</text>

  <rect x="156" y="318" width="464" height="140" rx="18" fill="#111827" filter="url(#cardShadow)"/>
  <rect x="184" y="348" width="58" height="58" rx="15" fill="#f9fafb"/>
  <text x="204" y="386" fill="#111827" font-family="Inter, ui-sans-serif, system-ui, -apple-system, BlinkMacSystemFont, Segoe UI, sans-serif" font-size="28" font-weight="800">C</text>
  <text x="268" y="374" fill="#ffffff" font-family="Inter, ui-sans-serif, system-ui, -apple-system, BlinkMacSystemFont, Segoe UI, sans-serif" font-size="30" font-weight="760">Desktop App</text>
  <text x="268" y="404" fill="#cbd5e1" font-family="Inter, ui-sans-serif, system-ui, -apple-system, BlinkMacSystemFont, Segoe UI, sans-serif" font-size="15">Electron + React + Vite</text>
  <text x="184" y="434" fill="#d1d5db" font-family="Inter, ui-sans-serif, system-ui, -apple-system, BlinkMacSystemFont, Segoe UI, sans-serif" font-size="14">Workspace UI, sessions, chat, approvals, diffs, Relay presence</text>

  <rect x="208" y="530" width="360" height="84" rx="16" fill="#ffffff" stroke="#9ca3af" stroke-width="1.5"/>
  <text x="240" y="566" fill="#111827" font-family="Inter, ui-sans-serif, system-ui, -apple-system, BlinkMacSystemFont, Segoe UI, sans-serif" font-size="24" font-weight="760">Codex CLI</text>
  <text x="240" y="594" fill="#6b7280" font-family="Inter, ui-sans-serif, system-ui, -apple-system, BlinkMacSystemFont, Segoe UI, sans-serif" font-size="14">codex app-server, local turns, tool execution</text>

  <path d="M388 530V468" stroke="#111827" stroke-width="3" stroke-linecap="round" marker-end="url(#arrowDark)"/>
  <rect x="286" y="478" width="204" height="36" rx="18" fill="#ffffff" stroke="#d1d5db"/>
  <text x="315" y="501" fill="#374151" font-family="Inter, ui-sans-serif, system-ui, -apple-system, BlinkMacSystemFont, Segoe UI, sans-serif" font-size="13" font-weight="700">local WebSocket IPC</text>

  <rect x="820" y="214" width="344" height="184" rx="24" fill="#eff6ff" stroke="#bfdbfe" stroke-width="1.5" filter="url(#cardShadow)"/>
  <path d="M910 294C895 294 883 282 883 267C883 253 894 241 908 240C916 219 937 204 961 204C986 204 1007 219 1015 240C1035 242 1051 259 1051 280C1051 302 1033 320 1011 320H910C895 320 883 309 883 294Z" fill="#ffffff" stroke="#2563eb" stroke-width="2.5" transform="translate(0 28)"/>
  <text x="888" y="346" fill="#111827" font-family="Inter, ui-sans-serif, system-ui, -apple-system, BlinkMacSystemFont, Segoe UI, sans-serif" font-size="30" font-weight="760">Relay Server</text>
  <text x="888" y="376" fill="#475569" font-family="Inter, ui-sans-serif, system-ui, -apple-system, BlinkMacSystemFont, Segoe UI, sans-serif" font-size="15">Go + WebSocket + SQLite</text>
  <text x="852" y="428" fill="#334155" font-family="Inter, ui-sans-serif, system-ui, -apple-system, BlinkMacSystemFont, Segoe UI, sans-serif" font-size="14">API key auth, presence, event replay, device discovery</text>

  <rect x="842" y="512" width="300" height="128" rx="24" fill="#111827" filter="url(#cardShadow)"/>
  <rect x="878" y="540" width="54" height="78" rx="14" fill="#f9fafb"/>
  <rect x="894" y="604" width="22" height="4" rx="2" fill="#9ca3af"/>
  <text x="960" y="560" fill="#ffffff" font-family="Inter, ui-sans-serif, system-ui, -apple-system, BlinkMacSystemFont, Segoe UI, sans-serif" font-size="28" font-weight="760">Mobile App</text>
  <text x="960" y="592" fill="#cbd5e1" font-family="Inter, ui-sans-serif, system-ui, -apple-system, BlinkMacSystemFont, Segoe UI, sans-serif" font-size="15">Android remote control</text>
  <text x="960" y="616" fill="#cbd5e1" font-family="Inter, ui-sans-serif, system-ui, -apple-system, BlinkMacSystemFont, Segoe UI, sans-serif" font-size="15">sessions, chat, approvals</text>

  <path d="M620 358H796" stroke="#2563eb" stroke-width="3" stroke-linecap="round" stroke-dasharray="9 9" marker-end="url(#arrowBlue)"/>
  <rect x="646" y="330" width="140" height="36" rx="18" fill="#ffffff" stroke="#bfdbfe"/>
  <text x="672" y="353" fill="#2563eb" font-family="Inter, ui-sans-serif, system-ui, -apple-system, BlinkMacSystemFont, Segoe UI, sans-serif" font-size="13" font-weight="760">desktop events</text>

  <path d="M820 410H622" stroke="#2563eb" stroke-width="3" stroke-linecap="round" stroke-dasharray="9 9" marker-end="url(#arrowBlue)"/>
  <rect x="650" y="392" width="146" height="36" rx="18" fill="#ffffff" stroke="#bfdbfe"/>
  <text x="671" y="415" fill="#2563eb" font-family="Inter, ui-sans-serif, system-ui, -apple-system, BlinkMacSystemFont, Segoe UI, sans-serif" font-size="13" font-weight="760">client commands</text>

  <path d="M962 512V418" stroke="#2563eb" stroke-width="3" stroke-linecap="round" marker-end="url(#arrowBlue)"/>
  <path d="M1022 398V492" stroke="#16a34a" stroke-width="3" stroke-linecap="round" stroke-dasharray="8 8" marker-end="url(#arrowGreen)"/>
  <rect x="888" y="454" width="154" height="36" rx="18" fill="#ffffff" stroke="#bfdbfe"/>
  <text x="916" y="477" fill="#2563eb" font-family="Inter, ui-sans-serif, system-ui, -apple-system, BlinkMacSystemFont, Segoe UI, sans-serif" font-size="13" font-weight="760">wss + API key</text>

  <rect x="826" y="112" width="338" height="58" rx="18" fill="#f9fafb" stroke="#e5e7eb"/>
  <circle cx="858" cy="141" r="9" fill="#22c55e"/>
  <text x="882" y="146" fill="#374151" font-family="Inter, ui-sans-serif, system-ui, -apple-system, BlinkMacSystemFont, Segoe UI, sans-serif" font-size="14" font-weight="700">Presence visible on both sides</text>

  <rect x="112" y="674" width="1056" height="36" rx="18" fill="#f3f4f6"/>
  <text x="138" y="697" fill="#6b7280" font-family="Inter, ui-sans-serif, system-ui, -apple-system, BlinkMacSystemFont, Segoe UI, sans-serif" font-size="13">Flow: mobile sends commands through Relay. Desktop executes them against local Codex and publishes snapshots or events back through Relay.</text>
</svg>
